<svg width="28" height="28" fill="none" xmlns="http://www.w3.org/2000/svg"><g clip-path="url(#clip0_505_748)"><path d="M16.114.712a.583.583 0 00-.495-.117L.453 4.095A.583.583 0 000 4.669v19.833c0 .288.21.533.495.577l15.166 2.333a.583.583 0 00.672-.576V1.169a.583.583 0 00-.219-.457z" fill="#4CAF50"/><path d="M27.417 25.086H15.75a.583.583 0 010-1.167h11.083V4.086H15.75a.583.583 0 110-1.167h11.667c.322 0 .583.261.583.583v21a.583.583 0 01-.583.584z" fill="#4CAF50"/><path d="M11.083 19.253a.583.583 0 01-.494-.274L4.755 9.646a.583.583 0 11.99-.617l5.833 9.333a.583.583 0 01-.495.891z" fill="#FAFAFA"/><path d="M5.25 19.252a.583.583 0 01-.494-.892l5.834-9.333a.583.583 0 11.99.617l-5.834 9.333a.584.584 0 01-.496.275z" fill="#FAFAFA"/><path d="M20.417 25.086a.583.583 0 01-.584-.584v-21a.583.583 0 011.167 0v21a.583.583 0 01-.583.584z" fill="#4CAF50"/><path d="M27.417 21.586H15.75a.583.583 0 110-1.167h11.667a.583.583 0 010 1.167zm0-3.5H15.75a.583.583 0 110-1.167h11.667a.583.583 0 010 1.167zm0-3.5H15.75a.583.583 0 110-1.167h11.667a.583.583 0 010 1.167zm0-3.5H15.75a.583.583 0 110-1.167h11.667a.583.583 0 010 1.167zm0-3.5H15.75a.583.583 0 110-1.167h11.667a.583.583 0 010 1.167z" fill="#4CAF50"/></g><defs><clipPath id="clip0_505_748"><path fill="#fff" d="M0 0h28v28H0z"/></clipPath></defs></svg>