<svg width="24" height="24" fill="none" xmlns="http://www.w3.org/2000/svg"><g clip-path="url(#clip0_404_497)"><path d="M1.5 1.6C-.4 3.6 0 5.6 0 12c0 5.2-1 10.5 3.9 11.7 1.5.4 14.7.4 16.2 0 2-.5 3.7-2 3.9-5V5.3c-.3-3-2.1-4.7-4.6-5C19 0 18.8 0 16 0 5.7 0 3.5-.4 1.5 1.6z" fill="url(#paint0_linear_404_497)"/><path d="M12 3.1c-3.6 0-7-.3-8.4 3.1-.5 1.4-.5 3.2-.5 5.8 0 2.3 0 4.4.5 5.8 1.3 3.4 4.8 3 8.4 3 3.5 0 7 .4 8.4-3 .5-1.4.5-3.2.5-5.8 0-3.5.1-5.7-1.5-7.4-1.7-1.7-4-1.5-7.4-1.5zm-.8 1.6c7.6 0 8.5-.8 8 10.9-.2 4.1-3.3 3.7-7.2 3.7-7 0-7.3-.2-7.3-7.3s.6-7.3 6.5-7.3zm5.5 1.5a1.05 1.05 0 000 2.1 1 1 0 100-2v-.1zM12 7.4a4.6 4.6 0 100 9.2 4.6 4.6 0 000-9.2zM12 9c3.9 0 4 6 0 6s-4-6 0-6z" fill="#fff"/></g><defs><linearGradient id="paint0_linear_404_497" x1="1.559" y1="22.532" x2="23.78" y2="3.322" gradientUnits="userSpaceOnUse"><stop stop-color="#FD5"/><stop offset=".5" stop-color="#FF543E"/><stop offset="1" stop-color="#C837AB"/></linearGradient><clipPath id="clip0_404_497"><path fill="#fff" d="M0 0h24v24H0z"/></clipPath></defs></svg>