<svg width="27" height="23" viewBox="0 0 27 23" fill="none" xmlns="http://www.w3.org/2000/svg">
<g clip-path="url(#clip0_441_528)">
<path d="M7.50002 21.3332C7.96026 21.3332 8.33335 20.9601 8.33335 20.4998C8.33335 20.0396 7.96026 19.6665 7.50002 19.6665C7.03978 19.6665 6.66669 20.0396 6.66669 20.4998C6.66669 20.9601 7.03978 21.3332 7.50002 21.3332Z" stroke="#A0A4A8" stroke-width="2" stroke-linecap="round" stroke-linejoin="round"/>
<path d="M16.6666 21.3332C17.1269 21.3332 17.5 20.9601 17.5 20.4998C17.5 20.0396 17.1269 19.6665 16.6666 19.6665C16.2064 19.6665 15.8333 20.0396 15.8333 20.4998C15.8333 20.9601 16.2064 21.3332 16.6666 21.3332Z" stroke="#A0A4A8" stroke-width="2" stroke-linecap="round" stroke-linejoin="round"/>
<path d="M0.833313 3.8335H4.16665L6.39998 14.9918C6.47618 15.3755 6.6849 15.7201 6.9896 15.9654C7.2943 16.2107 7.67556 16.341 8.06665 16.3335H16.1666C16.5577 16.341 16.939 16.2107 17.2437 15.9654C17.5484 15.7201 17.7571 15.3755 17.8333 14.9918L19.1666 8.00016H4.99998" stroke="#A0A4A8" stroke-width="2" stroke-linecap="round" stroke-linejoin="round"/>
</g>
<defs>
<clipPath id="clip0_441_528">
<rect width="27" height="23" fill="white"/>
</clipPath>
</defs>
</svg>
