<svg width="20" height="18" viewBox="0 0 20 18" fill="none" xmlns="http://www.w3.org/2000/svg">
<path d="M17.3666 2.84172C16.941 2.41589 16.4356 2.0781 15.8794 1.84763C15.3232 1.61716 14.727 1.49854 14.125 1.49854C13.5229 1.49854 12.9267 1.61716 12.3705 1.84763C11.8143 2.0781 11.3089 2.41589 10.8833 2.84172L9.99997 3.72506L9.11663 2.84172C8.25689 1.98198 7.09083 1.49898 5.87497 1.49898C4.65911 1.49898 3.49304 1.98198 2.6333 2.84172C1.77356 3.70147 1.29056 4.86753 1.29056 6.08339C1.29056 7.29925 1.77356 8.46531 2.6333 9.32506L3.51663 10.2084L9.99997 16.6917L16.4833 10.2084L17.3666 9.32506C17.7925 8.89943 18.1303 8.39407 18.3607 7.83785C18.5912 7.28164 18.7098 6.68546 18.7098 6.08339C18.7098 5.48132 18.5912 4.88514 18.3607 4.32893C18.1303 3.77271 17.7925 3.26735 17.3666 2.84172V2.84172Z" stroke="#A0A4A8" stroke-width="2" stroke-linecap="round" stroke-linejoin="round"/>
</svg>
